<svg width="1000" height="589" viewBox="0 0 1000 589" fill="none" xmlns="http://www.w3.org/2000/svg">
  <path fill-rule="evenodd" clip-rule="evenodd" d="M956.312 153.051L956.021 152.857V153.148L956.312 153.051ZM953.4 150.43L954.079 150.139V149.751L953.4 150.43ZM965.436 142.859L965.339 141.5L965.144 140.724L965.436 142.859ZM923.019 132.862L922.34 133.153L916.807 134.803L914.866 135.482L912.633 136.162L911.857 136.453V136.744L912.148 141.792L912.439 146.451L912.73 150.721L913.216 151.013L914.963 150.527L922.825 148.198L923.019 148.683L936.996 143.345L937.093 143.539L938.355 143.053L942.82 141.306L947.091 146.451L947.673 145.965L947.964 144.509L947.867 146.839H948.838L949.129 148.004L950.003 149.654L954.565 144.121L958.35 145.383L959.224 143.442L965.436 140.141L962.815 134.997L963.494 138.297L960.291 140.724L956.7 141.015L949.517 133.347L946.314 128.494L949.517 125.097L946.217 124.903L944.858 121.699L944.761 121.505L939.229 127.523L926.999 131.6L923.019 132.862Z" fill="#38ABE2" stroke="white" stroke-width="0.970631" stroke-linejoin="round"/>
  <path fill-rule="evenodd" clip-rule="evenodd" d="M558.547 73.8474L560.488 80.7388L564.565 105.587L566.506 115.487L567.089 124.223L569.321 129.465L569.806 133.929L570.195 135.385L570.098 135.677L566.215 142.083L568.739 146.354L573.592 180.52L573.786 184.985L578.639 184.693L597.761 183.626L645.516 179.646L650.272 179.161V178.676L648.913 171.202L642.992 168.193L638.333 163.34L630.956 158.875L628.627 158.681L625.035 155.963L626.006 142.568L622.609 139.462L623.773 134.026L629.986 128.397L628.918 116.749L631.15 114.226L638.721 106.266L647.36 95.2012L650.66 92.8717L656.484 90.0569L662.599 85.4949L658.522 86.2714L656.096 84.4272L646.777 85.6891L645.322 83.9419L636.974 87.3391L630.277 84.5243L628.433 82.2919L623.094 82.6801L619.503 80.8359L620.667 79.477L616.106 78.0211H612.029L605.526 80.8359L604.264 78.8946L593.975 77.4387L590.481 68.703L590.093 66.0823L585.628 64.8205L586.016 72.2944L574.174 73.1679L559.518 73.7503L558.547 73.8474Z" fill="#38ABE2" stroke="white" stroke-width="0.970631" stroke-linejoin="round"/>
  <path fill-rule="evenodd" clip-rule="evenodd" d="M465.658 72.9738L433.53 70.8384L410.138 68.6059L386.842 65.8882L372.38 63.9469L349.279 60.3556L337.729 58.4143L311.91 53.4641L309.192 52.8817L305.018 72.6826L306.862 76.2739L308.318 81.8065L307.445 82.583L309.289 87.6303L311.813 89.7657L318.995 101.802L319.675 103.84L322.587 103.646L319.189 119.564L317.831 119.952L315.986 125.291L325.596 125.97L326.372 130.435L331.808 143.733L332.778 144.509L336.564 152.274L337.534 151.498L345.591 151.401L355.782 152.468L358.306 149.168L361.315 154.604L361.897 154.895L361.994 154.313L363.353 144.8L396.549 148.877L423.047 151.401L437.024 152.566L461.969 154.021L463.231 154.119H463.522L463.619 152.76L463.911 146.062L464.299 137.23L464.396 134.997L464.59 131.115L466.143 100.637L467.405 76.9534L467.502 73.0709L465.658 72.9738Z" fill="#34BA76" stroke="white" stroke-width="0.970631" stroke-linejoin="round"/>
  <path fill-rule="evenodd" clip-rule="evenodd" d="M556.509 73.8474L527.196 74.4297L506.715 74.3327L489.147 73.9444L468.57 73.1679L467.502 73.0709L467.405 76.9534L466.143 100.637L464.59 131.115L464.396 134.997L468.181 135.191L510.986 136.356L550.491 136.065L566.895 135.58L570.195 135.385L569.806 133.929L569.321 129.465L567.089 124.223L566.506 115.487L564.565 105.587L560.488 80.7389L558.547 73.8474L556.509 73.8474Z" fill="#34BA76" stroke="white" stroke-width="0.970631" stroke-linejoin="round"/>
  <path fill-rule="evenodd" clip-rule="evenodd" d="M416.35 514.999L413.341 512.767L410.72 513.446L411.302 518.882L407.711 523.347L410.817 530.432L411.691 537.712L415.282 540.042L417.514 536.45L421.494 533.538L426.347 532.276L431.686 527.714L426.444 523.25L426.347 520.532L416.35 514.999ZM398.684 507.137L397.228 505.875L395.869 507.72L398.684 507.137ZM391.404 502.963L391.793 499.372L389.948 499.081L391.404 502.963ZM397.519 497.043L395.869 497.819L397.034 501.507L399.558 501.702L400.334 504.905L403.052 506.069L409.07 503.255L403.44 498.596L397.519 497.043ZM385.095 493.063L384.222 495.684L388.395 495.587L392.278 496.557L390.24 493.354L385.095 493.063ZM372.865 485.395L370.633 483.26L366.362 486.56L369.08 491.607L371.021 489.569L376.554 490.733L376.068 488.404L372.865 485.395ZM329.381 481.124L329.963 479.765L331.614 478.892L329.381 481.124ZM344.814 472.291L338.02 474.815L337.34 476.659L340.058 478.601L343.844 479.571L346.561 474.233L344.814 472.291ZM297.739 454.432V454.335H297.544L297.739 454.432ZM246.295 441.717V441.911H246.392L246.295 441.717ZM217.37 434.34H217.176V434.437L217.37 434.34ZM187.475 409.2L187.378 408.909V409.006L187.475 409.2ZM120.987 387.944L120.695 388.235L120.889 388.332L120.987 387.944ZM11.1111 320.776L11.4023 320.679V320.485L11.1111 320.776Z" fill="#34BA76"/>
  <path fill-rule="evenodd" clip-rule="evenodd" d="M309.095 52.8817L300.456 51.1346L297.641 50.4551L296.38 50.1639L285.12 100.831L285.606 105.005L285.217 109.372L285.411 110.343V110.44L285.509 112.284L288.809 115.876L284.053 127.814L273.958 141.015L273.667 143.442L276.288 149.654L267.067 187.897L266.678 189.935L269.396 190.517L296.865 195.953L307.833 197.991L310.648 198.476L313.366 198.962L327.343 201.194L352.385 204.98L355.2 205.368L355.588 202.165L356.462 195.856L359.762 170.619L361.509 158.098L361.897 154.895L361.315 154.604L358.306 149.168L355.782 152.468L345.591 151.401L337.534 151.498L336.564 152.274L332.778 144.509L331.808 143.733L326.372 130.435L325.596 125.97L315.986 125.291L317.831 119.952L319.19 119.564L322.587 103.646L319.675 103.84L318.995 101.802L311.813 89.7658L309.289 87.6304L307.445 82.5831L308.318 81.8066L306.862 76.274L305.018 72.6826L309.192 52.8818L309.095 52.8817Z" fill="#34BA76" stroke="white" stroke-width="0.970631" stroke-linejoin="round"/>
  <path fill-rule="evenodd" clip-rule="evenodd" d="M192.134 77.0504L192.231 75.4004L192.037 75.4974L192.134 77.0504ZM212.808 68.2177L213.391 67.2471L212.711 67.15L212.808 68.2177ZM210.964 66.4706L211.546 64.5293L210.964 64.3352V66.4706ZM218.05 63.6557L217.953 61.7145L216.303 64.2381L218.05 63.6557ZM218.244 59.5791L218.535 57.6378L218.341 57.1525L218.244 59.5791ZM218.535 50.0669L218.438 48.9992L218.05 48.9021L218.535 50.0669ZM221.641 43.6607L220.767 43.5637L219.02 46.2814L221.641 43.6607ZM219.214 41.04L219.7 40.6518L219.797 40.3606L219.214 41.04ZM218.729 41.3312L218.438 39.3899L217.564 41.04L218.729 41.3312ZM218.244 38.6134L217.37 38.2252L218.05 39.1958L218.244 38.6134ZM221.156 40.2635V39.0017L220.865 39.487L221.156 40.2635ZM222.029 39.0017L221.641 38.7105H221.544L222.029 39.0017ZM216.497 36.8663L216.011 36.4781L215.817 36.381L216.497 36.8663ZM220.088 36.4781L217.467 37.1575L218.147 37.3516L220.088 36.4781ZM217.953 36.2839L217.467 35.7015L217.37 35.7986L217.953 36.2839ZM219.991 35.1192H219.603L220.088 35.3133L219.991 35.1192ZM200.967 84.9126L204.461 88.698L203.878 95.9777L204.558 97.8219L209.799 100.637L224.553 101.996L225.135 103.743L232.124 103.84L238.724 104.713L249.498 103.549L254.837 104.422L256.293 103.743L283.567 109.955L285.411 110.343L285.217 109.372L285.606 105.005L285.12 100.831L296.38 50.164L294.827 49.8728L272.114 44.5343L252.313 39.4871L229.891 33.275L223.194 31.6249L224.747 40.0694L223.291 42.7872L220.67 41.4283L223.194 53.173L220.476 57.0555L219.214 60.6468V64.3352L213.488 68.3148L211.061 66.7618L208.732 67.9265L213.002 62.3939L211.935 66.1794L214.361 63.5587L216.303 63.947L215.72 59.0938L216.982 59.2879L219.603 53.4641L218.729 52.5906L215.332 56.9584L213.099 57.0555L215.526 54.3377L218.244 53.6583L217.273 48.708L214.555 48.0286L213.197 45.6991L211.546 46.5727L202.617 42.6901L194.755 36.5752L192.619 42.496L192.425 45.0196L194.075 49.4846L193.007 63.947L192.231 66.1794L196.599 66.5677L192.231 69.6737L194.56 70.8384L192.716 77.0505L191.843 72.1973L190.193 77.827L192.425 80.5447L194.852 80.3506L197.763 82.0978L199.219 84.9126L200.967 84.9126Z" fill="#34BA76" stroke="white" stroke-width="0.970631" stroke-linejoin="round"/>
  <path fill-rule="evenodd" clip-rule="evenodd" d="M372.186 309.905L339.476 305.828L321.907 303.305L296.865 299.325L294.341 298.937V299.131L290.071 317.961L287.838 317.864L284.441 314.855L280.17 318.446L280.073 333.879L278.52 337.18V337.471V337.568L278.326 339.994L281.723 349.118L284.732 353.195L279.296 356.398L277.161 360.378L273.667 368.919L271.92 369.307L271.823 376.393L274.832 378.626L273.279 382.896L269.784 383.09L267.746 386.876L274.734 391.244L287.935 398.621L328.702 420.266L363.256 424.536H363.644L366.362 395.903L367.042 388.817L374.321 313.69L374.71 310.196L372.186 309.905Z" fill="#FCD847" stroke="white" stroke-width="0.970631" stroke-linejoin="round"/>
  <path fill-rule="evenodd" clip-rule="evenodd" d="M206.014 363.775L206.402 365.91V366.299L206.014 363.775ZM191.746 355.427L192.425 356.883L192.813 356.786L191.746 355.427ZM208.732 355.136L209.023 357.66L210.77 358.922L208.732 355.136ZM196.987 341.353L195.919 341.062L196.793 341.45L196.987 341.353ZM186.213 338.441L183.592 339.994L184.272 340.674L186.213 338.441ZM181.166 336.597L180.972 337.374L181.845 337.568L181.166 336.597ZM189.707 338.538L193.978 340.965L194.755 340.286L189.707 338.538ZM166.994 253.511L166.897 253.22V253.608L166.994 253.511ZM223 179.84L219.214 178.87L177.671 167.416L162.238 162.757V163.145L161.365 172.755L157.288 184.111L150.494 192.556L150.3 196.826L153.6 202.747L155.25 210.512L152.92 216.821L153.309 223.13L152.144 225.751L156.123 234.39L158.647 237.69L158.453 247.105L164.471 252.832L167.965 247.008L171.751 250.017L173.207 248.658L167.965 249.629L167.868 254.579L168.936 260.791L166.024 257.976L164.374 254.191L163.888 259.432L165.247 269.818L170.683 276.515L167.092 281.174L167.674 287.095L171.556 293.113L178.351 311.749L180.486 312.914L179.807 325.823L180.874 327.376L195.434 332.618L199.899 337.374L201.452 340.48L205.723 342.906L210.382 343.78L212.323 349.118L216.205 350.963L222.029 357.854L227.465 366.881L227.077 375.228L230.085 379.208L269.784 383.09L273.279 382.896L274.832 378.626L271.823 376.393L271.92 369.307L273.667 368.919L277.161 360.378L279.296 356.398L284.732 353.195L281.723 349.118L278.326 339.994L278.52 337.568V337.471L275.996 334.074L268.231 323.688L253.187 302.528L232.221 272.438L220.379 256.035L208.926 239.534L222.126 183.529L223 179.84Z" fill="#FCD847"/>
  <path d="M156.609 253.026L156.512 253.123M206.014 363.775L206.402 365.91V366.299L206.014 363.775ZM191.746 355.427L192.425 356.883L192.813 356.786L191.746 355.427ZM208.732 355.136L209.023 357.66L210.77 358.922L208.732 355.136ZM196.987 341.353L195.919 341.062L196.793 341.45L196.987 341.353ZM186.213 338.441L183.592 339.994L184.272 340.674L186.213 338.441ZM181.166 336.597L180.972 337.374L181.845 337.568L181.166 336.597ZM189.707 338.538L193.978 340.965L194.755 340.286L189.707 338.538ZM166.994 253.511L166.897 253.22V253.608L166.994 253.511ZM223 179.84L219.214 178.87L177.671 167.416L162.238 162.757V163.145L161.365 172.755L157.288 184.111L150.494 192.556L150.3 196.826L153.6 202.747L155.25 210.512L152.92 216.821L153.309 223.13L152.144 225.751L156.123 234.39L158.647 237.69L158.453 247.105L164.471 252.832L167.965 247.008L171.751 250.017L173.207 248.658L167.965 249.629L167.868 254.579L168.936 260.791L166.024 257.976L164.374 254.191L163.888 259.432L165.247 269.818L170.683 276.515L167.092 281.174L167.674 287.095L171.556 293.113L178.351 311.749L180.486 312.914L179.807 325.823L180.874 327.376L195.434 332.618L199.899 337.374L201.452 340.48L205.723 342.906L210.382 343.78L212.323 349.118L216.205 350.963L222.029 357.854L227.465 366.881L227.077 375.228L230.085 379.208L269.784 383.09L273.279 382.896L274.832 378.626L271.823 376.393L271.92 369.307L273.667 368.919L277.161 360.378L279.296 356.398L284.732 353.195L281.723 349.118L278.326 339.994L278.52 337.568V337.471L275.996 334.074L268.231 323.688L253.187 302.528L232.221 272.438L220.379 256.035L208.926 239.534L222.126 183.529L223 179.84Z" stroke="white" stroke-width="0.970631" stroke-linejoin="round"/>
  <path fill-rule="evenodd" clip-rule="evenodd" d="M489.632 255.55L490.021 236.525L485.362 236.331L461.678 235.457L459.349 235.36L457.407 235.263L428.58 233.419L409.361 231.866L385.387 229.537L383.057 229.245L382.766 231.769L377.524 282.339L375.68 300.004L374.904 307.672L374.71 310.196L377.719 310.487L426.638 314.758L448.186 316.117L469.637 317.087L472.743 317.185L474.685 317.282L478.761 317.379L480.703 317.476L486.817 317.67H488.37V315.729L489.438 264.382L489.535 258.656V256.811L489.632 255.55Z" fill="#34BA76" stroke="white" stroke-width="0.970631" stroke-linejoin="round"/>
  <path fill-rule="evenodd" clip-rule="evenodd" d="M294.827 295.831L304.921 233.031L310.066 201.582L310.648 198.476L307.833 197.991L296.865 195.953L269.396 190.517L266.678 189.935L263.961 189.352L250.275 186.344L225.718 180.52L223 179.84L222.126 183.529L208.926 239.534L220.379 256.035L232.221 272.438L253.187 302.528L268.231 323.688L275.996 334.074L278.52 337.471V337.18L280.073 333.879L280.17 318.446L284.441 314.855L287.838 317.864L290.071 317.961L294.341 299.131V298.937L294.827 295.831Z" fill="#FCD847" stroke="white" stroke-width="0.970631" stroke-linejoin="round"/>
  <path fill-rule="evenodd" clip-rule="evenodd" d="M472.452 324.756L472.549 322.232L472.646 319.708L472.743 317.185L469.637 317.087L448.186 316.117L426.638 314.758L377.719 310.487L374.71 310.196L374.321 313.69L367.042 388.817L366.362 395.903L363.644 424.536L364.033 424.633L377.427 425.895L378.689 419.101L381.116 417.16L408.294 419.586H408.488L406.061 414.83L418.388 415.704L449.157 417.451L468.376 418.324L471.676 327.279L472.355 327.376L472.452 324.756Z" fill="#FCD847" stroke="white" stroke-width="0.970631" stroke-linejoin="round"/>
  <path fill-rule="evenodd" clip-rule="evenodd" d="M162.238 162.757L177.671 167.416L219.214 178.87L223 179.84L225.718 180.52L250.275 186.343L263.961 189.352L266.678 189.935L267.067 187.896L276.288 149.654L273.667 143.442L273.958 141.015L284.053 127.814L288.809 115.876L285.509 112.284L285.411 110.44V110.343L283.567 109.955L256.293 103.743L254.837 104.422L249.498 103.549L238.724 104.713L232.124 103.84L225.135 103.743L224.553 101.996L209.799 100.637L204.558 97.8219L203.878 95.9777L204.461 88.6979L200.967 84.9125L200.675 85.0095L199.996 85.4948L195.143 82.9712L192.231 83.8448L190.29 82.8741L188.251 91.2216L186.892 93.5511L180.874 108.208L179.127 116.264L178.06 116.361L172.43 129.756L168.645 135.482L167.286 136.453L163.791 143.247L163.112 150.43L160.977 156.836L162.238 162.66L162.238 162.757ZM197.764 83.0683L197.472 82.1948L197.375 82.8742L197.764 83.0683Z" fill="#34BA76" stroke="white" stroke-width="0.970631" stroke-linejoin="round"/>
  <path fill-rule="evenodd" clip-rule="evenodd" d="M352.385 204.98L327.343 201.194L313.366 198.962L310.648 198.476L310.066 201.582L304.921 233.031L294.827 295.831L294.341 298.937L296.865 299.325L321.907 303.305L339.476 305.828L372.186 309.905L374.71 310.196L374.904 307.672L375.68 300.004L377.524 282.339L382.766 231.769L383.057 229.245L381.116 229.051L356.365 226.042L352.579 225.557L355.006 206.63L355.2 205.368L352.385 204.98Z" fill="#34BA76" stroke="white" stroke-width="0.970631" stroke-linejoin="round"/>
  <path fill-rule="evenodd" clip-rule="evenodd" d="M461.387 192.167L462.163 177.025L463.134 156.642L463.231 154.119L461.969 154.021L437.024 152.566L423.047 151.401L396.549 148.877L363.353 144.8L361.994 154.313L361.897 154.895L361.509 158.098L359.762 170.619L356.462 195.856L355.588 202.165L355.2 205.368L355.006 206.63L352.579 225.557L356.365 226.042L381.116 229.051L383.057 229.245L385.387 229.537L409.361 231.866L428.58 233.419L457.407 235.263L459.349 235.36L459.446 232.837L459.931 222.645L460.805 204.883L461.193 197.312L461.29 194.788L461.387 192.167Z" fill="#34BA76" stroke="white" stroke-width="0.970631" stroke-linejoin="round"/>
  <path fill-rule="evenodd" clip-rule="evenodd" d="M690.456 328.056L679.973 329.609L684.244 322.814L682.4 319.029L645.419 322.62L614.164 325.144L609.602 325.435L610.185 328.153L613.97 347.759L614.067 352.127L615.135 378.528L615.232 382.896L615.523 382.993L616.979 384.546L622.803 384.352L623.385 392.894L623.579 395.32L626.588 395.029L635.809 394.35L672.402 390.953H672.596L672.499 388.817L673.47 388.138L671.723 384.838L675.411 369.308L673.955 367.56L679.488 361.445L679.1 356.204L683.176 349.41V349.312L682.982 349.118L686.476 345.915L685.506 342.033L688.224 337.762L687.641 333.782L690.553 328.153V328.056L690.456 328.056Z" fill="#F54545" stroke="white" stroke-width="0.970631" stroke-linejoin="round"/>
  <path fill-rule="evenodd" clip-rule="evenodd" d="M661.531 197.7L656.193 194.885L653.281 190.905L652.31 185.179L653.087 182.558L650.272 179.161L645.516 179.646L597.761 183.626L578.639 184.693L573.786 184.985L571.748 185.082L573.398 195.856L572.039 201L574.174 204.203V204.883L574.854 204.98L577.96 214.104L580.969 218.86L581.163 224.295L584.463 228.857L583.881 230.798L586.89 243.028V243.32L606.787 242.737L628.044 240.893L648.913 238.272L653.669 242.446L653.863 242.64L654.737 242.252L654.057 238.466L657.649 236.234L659.104 226.334L657.649 225.654L658.522 220.607L662.89 219.733L667.743 216.239L669.879 210.124L669.976 207.018L666.093 203.33L664.928 201L661.24 198.671L661.434 198.185L661.531 197.7Z" fill="#38ABE2" stroke="white" stroke-width="0.970631" stroke-linejoin="round"/>
  <path fill-rule="evenodd" clip-rule="evenodd" d="M608.923 312.72L606.496 271.662L602.128 269.138L601.74 267.197L598.246 264.091L601.643 259.917L600.284 257.491L597.761 257.588L595.431 255.938L594.46 255.161L591.16 255.355L555.344 256.714L538.94 257.103H506.327L493.224 256.908L489.535 256.811V258.656L489.438 264.382L488.37 315.729V317.67L492.544 317.767L515.063 318.058L567.768 317.282L605.331 315.535L609.02 315.243L608.923 312.72Z" fill="#34BA76" stroke="white" stroke-width="0.970631" stroke-linejoin="round"/>
  <path fill-rule="evenodd" clip-rule="evenodd" d="M653.669 242.446L648.913 238.272L628.044 240.893L606.787 242.737L586.89 243.32L586.792 243.902L589.219 248.561L591.451 250.114L594.072 254.773L594.46 255.161L595.431 255.938L597.761 257.588L600.284 257.491L601.643 259.917L598.246 264.091L601.74 267.197L602.128 269.138L606.496 271.662L608.923 312.72L609.02 315.243L609.214 317.767L609.311 320.291L609.505 322.911L609.602 325.435L614.164 325.144L645.419 322.62L682.4 319.029L684.244 322.814L679.973 329.609L690.456 328.056H690.553V327.279L690.747 322.814L692.688 320.388L692.106 317.67L692.009 317.573L691.912 317.476L692.3 316.214L692.883 316.408L693.174 317.184L693.077 317.476V317.573V318.349L693.465 318.446L694.241 317.476V317.379L694.338 317.087L696.862 315.534L697.25 315.34L698.124 307.381L697.93 306.993L697.639 306.896L690.747 301.266L691.815 299.228L689.874 293.695L686.379 290.977L679.779 288.066L675.605 284.668L676.091 277.68L677.352 271.177L670.364 271.565L668.229 269.332L667.258 264.867L656.193 255.549L653.087 246.911L653.863 242.64L653.669 242.446Z" fill="#38ABE2" stroke="white" stroke-width="0.970631" stroke-linejoin="round"/>
  <path fill-rule="evenodd" clip-rule="evenodd" d="M572.33 204.688L569.321 201.679L558.741 198.573L555.344 198.476L550.2 199.932L544.085 196.05L524.963 196.244L497.106 195.953L464.202 194.885L461.29 194.788L461.193 197.312L460.805 204.882L459.931 222.645L459.446 232.837L459.349 235.36L461.678 235.457L485.361 236.331L490.02 236.525L489.632 255.549L489.535 256.811L493.224 256.908L506.327 257.103H538.94L555.344 256.714L591.16 255.355L594.46 255.161L594.072 254.773L591.451 250.114L589.219 248.561L586.792 243.902L586.889 243.32V243.028L583.88 230.798L584.463 228.857L581.163 224.295L580.969 218.86L577.96 214.104L574.854 204.98L574.174 204.883L572.33 204.688Z" fill="#34BA76" stroke="white" stroke-width="0.970631" stroke-linejoin="round"/>
  <path fill-rule="evenodd" clip-rule="evenodd" d="M609.505 322.911L609.311 320.291L609.214 317.767L609.02 315.243L605.331 315.535L567.768 317.282L515.063 318.058L492.544 317.767L488.37 317.67H486.817L480.702 317.476L478.761 317.379L474.685 317.282L472.743 317.184L472.646 319.708L472.549 322.232L472.452 324.755L472.355 327.376H472.937L496.427 327.958L521.275 328.25L521.566 361.445L523.313 367.269L527.196 370.957L531.369 371.152L532.243 369.404L537.97 374.646L545.443 375.422L546.802 376.975L549.52 375.714L556.314 378.917V380.761L558.838 380.664L561.459 378.431L566.312 381.537L570.874 383.187L573.98 378.917L583.88 383.576L587.569 380.567L590.578 379.402L593.004 379.984L602.128 377.364L606.981 379.402L611.349 382.217L615.135 382.896H615.232L615.135 378.528L614.067 352.127L613.97 347.759L610.184 328.153L609.602 325.435L609.505 322.911Z" fill="#F54545" stroke="white" stroke-width="0.970631" stroke-linejoin="round"/>
  <path fill-rule="evenodd" clip-rule="evenodd" d="M566.895 135.579L550.491 136.065L510.986 136.356L468.181 135.191L464.396 134.997L464.299 137.23L463.911 146.062L463.619 152.76L463.522 154.119H463.231L463.134 156.642L462.163 177.025L461.387 192.167L461.29 194.788L464.202 194.885L497.106 195.953L524.963 196.244L544.085 196.05L550.2 199.932L555.344 198.476L558.741 198.574L569.321 201.68L572.33 204.689L574.174 204.883V204.203L572.039 201L573.398 195.856L571.748 185.082L573.786 184.985L573.592 180.52L568.739 146.354L566.215 142.083L570.097 135.677L570.195 135.385L566.895 135.579Z" fill="#34BA76" stroke="white" stroke-width="0.970631" stroke-linejoin="round"/>
  <path fill-rule="evenodd" clip-rule="evenodd" d="M689 469.283L687.738 469.574L687.156 470.156L689 469.283ZM693.077 469.283L692.397 468.991L692.203 469.283H693.077ZM695.406 468.506H694.727L694.338 468.991L695.406 468.506ZM694.241 467.827L694.047 467.535L693.95 467.827H694.241ZM702.006 462.682L701.715 462.876H702.201L702.006 462.682ZM715.595 456.955L716.178 456.179L715.498 457.053L715.595 456.955ZM717.536 454.432L717.342 454.529V454.626L717.536 454.432ZM667.646 462.973L669.102 461.129L665.122 460.061L663.375 461.517L667.646 462.973ZM707.927 454.529L707.539 454.141L707.442 454.335L707.927 454.529ZM708.995 452.782L708.024 452.491L708.315 453.461L708.995 452.782ZM716.954 451.132V450.841V450.938V451.132ZM718.895 449.87L718.798 449.773L718.895 449.967V449.87ZM718.119 449.676L717.925 449.579L717.828 449.87L718.119 449.676ZM711.324 449.385L712.198 449.093V448.802L711.324 449.385ZM711.81 448.899L712.295 448.414L712.198 448.317L711.81 448.899ZM708.413 445.308L708.218 445.502H708.316L708.413 445.308ZM672.596 390.953H672.402L635.809 394.35L626.588 395.029L623.579 395.32L623.677 397.65L625.618 416.383L628.821 420.848L628.918 423.469L632.024 428.904L634.548 436.863L633.674 441.328L632.995 452.394L631.539 455.985H631.733L632.024 458.508L630.374 460.838L642.41 459.479L651.825 462.1L658.522 462.973L661.919 460.547L660.075 458.12L666.287 456.179L666.093 458.314L669.296 457.538L671.917 461.615L674.149 460.838L679.973 464.818L676.382 466.079L684.632 468.506H687.738L689.582 466.274L693.562 464.138L696.377 468.215L698.318 464.526L697.736 458.703L702.977 460.741L703.56 462.488L709.772 463.265L712.878 465.788L712.489 467.827L716.857 463.75L715.207 461.615L707.927 459.77L705.21 458.217L705.112 455.305L708.121 455.694L710.451 450.938L707.442 446.764L705.792 450.743L702.006 450.064L704.627 445.793L702.88 445.308L698.609 448.317L692.494 448.705L690.747 447.346L693.562 442.396L696.862 442.299L702.492 444.143L706.568 444.531L704.336 441.717L700.065 433.369L701.23 428.71L667.743 432.398L669.005 431.137L667.646 427.642L669.684 424.633L670.849 417.062L678.226 404.444L674.635 400.076L674.829 396.873L672.596 391.632L672.596 390.953Z" fill="#F54545" stroke="white" stroke-width="0.970631" stroke-linejoin="round"/>
  <path fill-rule="evenodd" clip-rule="evenodd" d="M573.98 536.935L569.321 519.367V522.667L573.98 536.935ZM572.912 506.069L569.612 512.281L569.224 514.32L572.912 506.069ZM575.533 501.507L578.639 497.431L576.407 498.79L575.533 501.507ZM586.501 491.607L579.222 495.392L581.26 495.004L586.501 491.607ZM587.472 490.248L589.51 488.598L588.734 488.792L587.472 490.248ZM472.355 327.376L471.676 327.279L468.375 418.324L449.157 417.451L418.388 415.704L406.061 414.83L408.488 419.586L408.585 419.683L419.067 430.166L425.085 437.252L433.045 443.173L438.674 453.461L440.81 464.235L445.372 467.244L448.963 471.224L454.107 473.068L461.581 477.824L464.978 479.086L469.637 474.427L471.093 469.477L473.52 464.721L481.091 461.712L484.003 463.168L492.447 463.847L500.115 468.603L505.357 469.574L503.901 472.291L506.91 474.233L509.724 477.63L510.307 481.221L512.151 483.648L516.422 493.937L520.693 497.528L523.993 502.963L528.166 507.234L530.011 507.817L531.564 518.882L536.126 521.405L536.32 524.9L537.484 524.608L545.444 534.315L549.423 535.188L554.471 538.197H562.236L567.865 541.303L574.563 539.847L571.554 537.033L568.836 528.879L567.768 521.794L566.215 519.464L566.895 514.708L564.856 514.514L562.138 510.049L565.245 513.349L568.836 512.087L570.777 506.943L566.895 501.702L572.718 502.381L575.436 498.207L575.048 496.751L577.474 493.548L576.892 496.363L579.61 494.228L578.542 490.442L582.036 492.286L586.501 489.763L582.133 485.201L584.851 486.269L589.899 486.56L596.499 485.104L603.876 480.154L608.341 476.465L609.02 473.747L611.738 470.933L610.282 466.274L610.573 463.362L615.426 461.226L615.038 466.371H617.95L614.747 469.088L627.656 462.294L629.792 462.197L631.15 455.985H631.539L632.995 452.393L633.674 441.328L634.548 436.863L632.024 428.904L628.918 423.469L628.821 420.848L625.618 416.383L623.676 397.65L623.579 395.32L623.385 392.894L622.803 384.352L616.979 384.546L615.523 382.993L615.232 382.896H615.135L611.349 382.217L606.982 379.402L602.128 377.364L593.004 379.984L590.578 379.402L587.569 380.567L583.88 383.576L573.98 378.917L570.874 383.187L566.312 381.537L561.459 378.431L558.838 380.664L556.315 380.761V378.917L549.52 375.714L546.802 376.975L545.444 375.422L537.97 374.646L532.243 369.405L531.369 371.152L527.196 370.958L523.313 367.269L521.566 361.445L521.275 328.25L496.427 327.959L472.937 327.376L472.355 327.376Z" fill="#F54545" stroke="white" stroke-width="0.970631" stroke-linejoin="round"/>
  <path fill-rule="evenodd" clip-rule="evenodd" d="M936.996 143.345L923.019 148.683L922.825 148.198L914.963 150.527L913.216 151.013L913.41 151.983L917.098 166.251L918.263 167.707L915.739 170.813L917.487 172.463L923.116 167.028L926.125 162.854L926.708 164.019L940.879 157.71L941.17 157.419L941.073 155.089L940.49 153.051L937.482 144.606L937.093 143.539L936.996 143.345Z" fill="#38ABE2" stroke="white" stroke-width="0.970631" stroke-linejoin="round"/>
  <path fill-rule="evenodd" clip-rule="evenodd" d="M923.893 75.9827L922.631 77.5357L921.175 77.2446L920.398 83.6507V83.7478L922.728 92.4835L922.534 94.2306L918.36 99.7632L919.428 104.81V111.12L918.651 116.943L923.019 132.862L926.999 131.6L939.229 127.523L944.761 121.505V119.952L945.052 117.429L944.373 117.72L944.276 117.137L938.161 109.664L937.967 108.984L923.893 75.9827Z" fill="#38ABE2" stroke="white" stroke-width="0.970631" stroke-linejoin="round"/>
  <path fill-rule="evenodd" clip-rule="evenodd" d="M946.508 152.08L946.411 150.042L946.12 150.818L946.508 152.08ZM948.45 150.527L947.188 148.101L947.091 150.624L948.45 150.527ZM947.867 147.518L948.547 149.265L949.42 150.818L950.003 149.654L949.129 148.004L948.838 146.839H947.867V147.518ZM937.093 143.539L937.482 144.606L940.49 153.051L941.073 155.089L941.17 157.419L941.364 157.128L946.023 153.439L945.15 146.839L947.091 146.451L942.82 141.306L938.355 143.053L937.093 143.539Z" fill="#38ABE2" stroke="white" stroke-width="0.970631" stroke-linejoin="round"/>
  <path fill-rule="evenodd" clip-rule="evenodd" d="M923.019 132.862L918.651 116.943L919.428 111.12V104.81L918.36 99.7632L922.534 94.2306L922.728 92.4835L920.398 83.7478L919.137 84.2331L913.798 86.1744L908.557 88.2127L896.521 92.5805L895.841 92.7747L900.209 102.966L901.665 112.576L906.81 120.632L911.663 136.55L911.857 136.453L912.633 136.162L914.866 135.482L916.807 134.803L922.34 133.153L923.019 132.862Z" fill="#38ABE2" stroke="white" stroke-width="0.970631" stroke-linejoin="round"/>
  <path fill-rule="evenodd" clip-rule="evenodd" d="M718.313 344.848L718.701 345.624L720.06 346.498L720.643 386.294L720.837 408.133L725.787 438.028L726.175 437.931L730.543 438.805L731.708 430.166L733.649 435.019L736.949 438.028L743.258 434.34L742.579 433.757L742.773 433.854L738.405 423.857L780.336 417.063L783.151 416.577V416.48L780.53 411.53L780.336 404.444L778.201 400.562L779.269 392.991L781.016 391.05L773.833 378.237L760.827 338.636L760.73 338.441L757.818 338.927L742.288 341.45L734.523 342.421L718.216 344.653L718.313 344.848Z" fill="#F54545" stroke="white" stroke-width="0.970631" stroke-linejoin="round"/>
  <path fill-rule="evenodd" clip-rule="evenodd" d="M854.687 535.285H854.493L854.59 535.383L854.687 535.285ZM853.813 535.188V535.285H853.91L853.813 535.188ZM839.739 536.644H839.642V536.741L839.739 536.644ZM867.305 530.529H867.208L867.305 530.723V530.529ZM869.926 529.85V529.656L869.732 529.947L869.926 529.85ZM868.955 529.656L868.567 529.267L868.47 529.365L868.955 529.656ZM868.664 530.432L867.499 528.976L868.179 530.238L868.664 530.432ZM877.885 524.706V525.094L878.079 524.9L877.885 524.706ZM879.244 523.735L879.535 523.25L879.147 523.638L879.244 523.735ZM879.535 522.764H879.438V522.861L879.535 522.764ZM878.661 521.017L878.564 520.92V521.114L878.661 521.017ZM879.341 518.688L879.147 518.785L879.438 518.882L879.341 518.688ZM879.729 518.688L879.535 518.493L879.632 518.785L879.729 518.688ZM879.05 518.493L878.952 518.396V518.59L879.05 518.493ZM882.641 517.814V517.717L882.447 518.105L882.641 517.814ZM878.564 518.202H878.37L878.564 518.299V518.202ZM880.603 517.037H880.311L880.214 517.135L880.603 517.037ZM873.226 516.94V516.746L873.129 516.94H873.226ZM874.099 516.649H873.808L874.099 517.232V516.649ZM871.77 516.746V516.164L871.285 516.261L871.77 516.746ZM870.411 515.776L870.896 516.261V516.067L870.411 515.776ZM884.679 516.358L882.932 517.135L883.514 517.232L884.679 516.358ZM871.09 515.484H870.508V515.679L871.09 515.484ZM886.426 510.631L886.523 510.146L886.621 508.884L886.426 510.631ZM886.523 505.196L886.135 504.225L885.941 504.613L886.523 505.196ZM864.102 507.622L863.908 507.914L864.393 508.011L864.102 507.622ZM862.258 506.749L861.384 507.04L862.064 507.137L862.258 506.749ZM860.316 506.943V506.652L860.219 506.749L860.316 506.943ZM858.278 506.846L857.696 507.234L858.472 507.622L858.278 506.846ZM860.996 506.943L860.899 506.652L860.413 506.555L860.996 506.943ZM848.281 497.431L847.698 497.722L848.863 498.11L848.281 497.431ZM845.951 494.325L845.175 493.16L845.466 494.034L845.951 494.325ZM848.96 496.266L847.601 493.16L846.631 492.869L848.96 496.266ZM845.078 492.383L844.786 491.607L844.592 491.122L845.078 492.383ZM837.021 481.609L835.274 480.348L835.954 481.027L837.021 481.609ZM880.7 475.106L873.614 463.265H873.226L880.7 475.106ZM831.683 456.179L831.392 456.082L831.683 456.276V456.179ZM831.1 455.499L831.003 455.597L831.1 455.694V455.499ZM830.421 454.529V454.432L830.324 454.529H830.421ZM830.809 454.141L831.1 454.335V454.141H830.809ZM831.392 453.752L831.003 453.849H831.1L831.392 453.752ZM830.712 453.655L830.421 453.364L830.518 453.461L830.712 453.655ZM830.033 452.588H829.839L830.13 452.685L830.033 452.588ZM830.712 451.423H830.324L830.227 451.52L830.712 451.423ZM831.1 451.617L830.615 451.132L830.809 451.229L831.1 451.617ZM827.412 447.443L827.218 447.346V447.443H827.412ZM823.238 447.443L822.947 447.055L823.044 447.54L823.238 447.443ZM787.907 444.24L790.819 442.008L787.616 444.143L787.907 444.24ZM793.731 439.581L794.022 439.29L792.858 439.775L793.731 439.581ZM756.847 433.078L746.267 436.475L752.091 434.825L756.847 433.078ZM783.151 416.577L780.336 417.062L738.405 423.857L742.773 433.854L743.064 433.951L741.997 437.931L745.103 436.572L748.5 433.563L754.323 433.369L761.021 430.943L765.583 431.622L764.515 433.272L772.863 436.087L780.045 439.581L781.695 443.464L787.034 442.299L799.652 432.01L804.311 432.204L823.335 446.57L827.218 445.793L831.295 451.229L832.071 459.867L830.809 465.303L831.392 468.021L834.789 474.815L833.236 469.477L837.604 469.379L837.992 473.262L835.662 479.28L843.719 490.345L846.728 490.442L844.204 487.045L847.31 487.433L849.154 486.268L848.378 492.481L852.551 495.781L855.366 503.352L859.152 505.681L864.005 506.943L870.702 515.484L874.196 517.329L869.537 517.62L871.673 520.046L879.341 517.523L883.126 515.387L886.621 503.157L884.873 484.133L884.485 482.192L875.167 466.662L867.208 455.402L862.743 446.181L866.529 449.385L867.305 448.802L868.955 456.858L873.226 462.973L869.052 454.82L869.246 450.938L856.725 435.699L853.716 430.943L849.737 422.886L847.019 416.092L844.883 413.665L844.398 410.559L844.301 410.462L837.604 410.074L834.983 412.112L833.527 419.586L832.168 416.092L786.354 421.819L783.054 416.674L783.151 416.577Z" fill="#F54545"/>
  <path d="M854.007 535.091V534.994M840.807 536.547V536.644M840.613 536.644V536.547M877.788 522.473L877.691 522.376M876.041 520.92L875.944 520.823M881.379 516.552H881.282M854.687 535.285H854.493L854.59 535.383L854.687 535.285ZM853.813 535.188V535.285H853.91L853.813 535.188ZM839.739 536.644H839.642V536.741L839.739 536.644ZM867.305 530.529H867.208L867.305 530.723V530.529ZM869.926 529.85V529.656L869.732 529.947L869.926 529.85ZM868.955 529.656L868.567 529.267L868.47 529.365L868.955 529.656ZM868.664 530.432L867.499 528.976L868.179 530.238L868.664 530.432ZM877.885 524.706V525.094L878.079 524.9L877.885 524.706ZM879.244 523.735L879.535 523.25L879.147 523.638L879.244 523.735ZM879.535 522.764H879.438V522.861L879.535 522.764ZM878.661 521.017L878.564 520.92V521.114L878.661 521.017ZM879.341 518.688L879.147 518.785L879.438 518.882L879.341 518.688ZM879.729 518.688L879.535 518.493L879.632 518.785L879.729 518.688ZM879.05 518.493L878.952 518.396V518.59L879.05 518.493ZM882.641 517.814V517.717L882.447 518.105L882.641 517.814ZM878.564 518.202H878.37L878.564 518.299V518.202ZM880.603 517.037H880.311L880.214 517.135L880.603 517.037ZM873.226 516.94V516.746L873.129 516.94H873.226ZM874.099 516.649H873.808L874.099 517.232V516.649ZM871.77 516.746V516.164L871.285 516.261L871.77 516.746ZM870.411 515.776L870.896 516.261V516.067L870.411 515.776ZM884.679 516.358L882.932 517.135L883.514 517.232L884.679 516.358ZM871.09 515.484H870.508V515.679L871.09 515.484ZM886.426 510.631L886.523 510.146L886.621 508.884L886.426 510.631ZM886.523 505.196L886.135 504.225L885.941 504.613L886.523 505.196ZM864.102 507.622L863.908 507.914L864.393 508.011L864.102 507.622ZM862.258 506.749L861.384 507.04L862.064 507.137L862.258 506.749ZM860.316 506.943V506.652L860.219 506.749L860.316 506.943ZM858.278 506.846L857.696 507.234L858.472 507.622L858.278 506.846ZM860.996 506.943L860.899 506.652L860.413 506.555L860.996 506.943ZM848.281 497.431L847.698 497.722L848.863 498.11L848.281 497.431ZM845.951 494.325L845.175 493.16L845.466 494.034L845.951 494.325ZM848.96 496.266L847.601 493.16L846.631 492.869L848.96 496.266ZM845.078 492.383L844.786 491.607L844.592 491.122L845.078 492.383ZM837.021 481.609L835.274 480.348L835.954 481.027L837.021 481.609ZM880.7 475.106L873.614 463.265H873.226L880.7 475.106ZM831.683 456.179L831.392 456.082L831.683 456.276V456.179ZM831.1 455.499L831.003 455.597L831.1 455.694V455.499ZM830.421 454.529V454.432L830.324 454.529H830.421ZM830.809 454.141L831.1 454.335V454.141H830.809ZM831.392 453.752L831.003 453.849H831.1L831.392 453.752ZM830.712 453.655L830.421 453.364L830.518 453.461L830.712 453.655ZM830.033 452.588H829.839L830.13 452.685L830.033 452.588ZM830.712 451.423H830.324L830.227 451.52L830.712 451.423ZM831.1 451.617L830.615 451.132L830.809 451.229L831.1 451.617ZM827.412 447.443L827.218 447.346V447.443H827.412ZM823.238 447.443L822.947 447.055L823.044 447.54L823.238 447.443ZM787.907 444.24L790.819 442.008L787.616 444.143L787.907 444.24ZM793.731 439.581L794.022 439.29L792.858 439.775L793.731 439.581ZM756.847 433.078L746.267 436.475L752.091 434.825L756.847 433.078ZM783.151 416.577L780.336 417.062L738.405 423.857L742.773 433.854L743.064 433.951L741.997 437.931L745.103 436.572L748.5 433.563L754.323 433.369L761.021 430.943L765.583 431.622L764.515 433.272L772.863 436.087L780.045 439.581L781.695 443.464L787.034 442.299L799.652 432.01L804.311 432.204L823.335 446.57L827.218 445.793L831.295 451.229L832.071 459.867L830.809 465.303L831.392 468.021L834.789 474.815L833.236 469.477L837.604 469.379L837.992 473.262L835.662 479.28L843.719 490.345L846.728 490.442L844.204 487.045L847.31 487.433L849.154 486.268L848.378 492.481L852.551 495.781L855.366 503.352L859.152 505.681L864.005 506.943L870.702 515.484L874.196 517.329L869.537 517.62L871.673 520.046L879.341 517.523L883.126 515.387L886.621 503.157L884.873 484.133L884.485 482.192L875.167 466.662L867.208 455.402L862.743 446.181L866.529 449.385L867.305 448.802L868.955 456.858L873.226 462.973L869.052 454.82L869.246 450.938L856.725 435.699L853.716 430.943L849.737 422.886L847.019 416.092L844.883 413.665L844.398 410.559L844.301 410.462L837.604 410.074L834.983 412.112L833.527 419.586L832.168 416.092L786.354 421.819L783.054 416.674L783.151 416.577Z" stroke="white" stroke-width="0.970631" stroke-linejoin="round"/>
  <path fill-rule="evenodd" clip-rule="evenodd" d="M845.854 396.097L845.757 393.185L845.077 395.709L845.854 396.097ZM846.922 391.632L846.533 389.4L846.242 390.758L846.922 391.632ZM801.496 330.482L800.234 330.773L796.546 331.55L782.957 334.365L781.695 334.656L780.336 334.85L772.765 336.306L770.727 336.694L762.477 338.247L760.73 338.441L760.827 338.636L773.833 378.237L781.016 391.05L779.269 392.991L778.201 400.562L780.336 404.444L780.531 411.53L783.151 416.48V416.577L783.054 416.674L786.354 421.819L832.168 416.092L833.527 419.586L834.983 412.112L837.604 410.074L844.301 410.462L843.719 399.979L844.98 397.747L844.301 393.573L845.66 389.594L847.698 387.361L846.242 386.002L849.639 381.829H849.542L843.719 376.393L835.759 365.037L831.392 362.998L812.658 347.274L808.096 341.45L799.264 337.762L798.778 335.821L801.496 330.482Z" fill="#F54545" stroke="white" stroke-width="0.970631" stroke-linejoin="round"/>
  <path fill-rule="evenodd" clip-rule="evenodd" d="M716.76 442.784L716.275 442.881V442.978L716.76 442.784ZM725.787 441.62H724.428L725.69 441.717L725.787 441.62ZM714.528 442.59L714.139 442.978L714.236 443.076L714.528 442.59ZM723.651 441.814H719.963L723.457 441.911L723.651 441.814ZM683.176 349.312V349.41L679.099 356.204L679.488 361.445L673.955 367.56L675.411 369.308L671.723 384.838L673.47 388.138L672.499 388.817L672.596 390.953V391.632L674.829 396.873L674.635 400.077L678.226 404.444L670.849 417.063L669.684 424.633L667.646 427.642L669.005 431.137L667.743 432.399L701.23 428.71L700.065 433.369L704.336 441.717L706.568 444.531V444.434L710.16 440.358L717.731 438.708L724.719 439.484L725.787 438.125V438.028L720.837 408.133L720.643 386.293L720.06 346.498L718.701 345.624L718.313 344.848H718.119L713.266 345.527L704.724 346.692L685.312 349.118L683.176 349.312Z" fill="#F54545" stroke="white" stroke-width="0.970631" stroke-linejoin="round"/>
  <path fill-rule="evenodd" clip-rule="evenodd" d="M801.496 330.482L798.778 335.821L799.264 337.762L808.096 341.45L812.658 347.274L831.392 362.998L835.759 365.037L843.719 376.393L849.542 381.829L850.513 377.364L848.96 373.093L853.134 376.199L855.463 374.355L851.484 371.055L856.337 370.763L863.908 364.357L863.034 362.707L867.693 359.116L867.208 357.369L870.605 355.233L870.799 350.283L876.138 340.383L879.729 335.821L880.117 335.627L858.472 321.941L850.416 323.494L839.448 323.105L834.012 320.291L801.787 330.482H801.496Z" fill="#F54545" stroke="white" stroke-width="0.970631" stroke-linejoin="round"/>
  <path fill-rule="evenodd" clip-rule="evenodd" d="M661.434 198.185L661.24 198.671L664.928 201L666.093 203.33L669.976 207.018L669.878 210.124L667.743 216.239L662.89 219.733L658.522 220.607L657.648 225.654L659.104 226.334L657.648 236.234L654.057 238.466L654.737 242.252L653.863 242.64L653.087 246.911L656.193 255.55L667.258 264.868L668.228 269.332L670.364 271.565L677.352 271.177L676.091 277.68L675.605 284.668L679.779 288.066L686.379 290.978L689.873 293.695L691.815 299.228L690.747 301.266L697.639 306.896L697.93 306.993L697.347 306.411L699.289 301.849L706.762 303.887L708.607 301.752L707.151 297.481L713.266 293.889L711.616 291.56L713.072 288.26V287.969L712.683 287.872L712.78 279.233L714.916 277.68L718.604 269.041L717.828 265.256L715.401 260.694L716.76 255.55L709.966 207.697L708.995 206.63L706.471 200.903L704.433 198.768L703.559 193.138V192.944L690.456 194.788L682.594 195.759L661.434 198.185Z" fill="#38ABE2" stroke="white" stroke-width="0.970631" stroke-linejoin="round"/>
  <path fill-rule="evenodd" clip-rule="evenodd" d="M750.344 200.224L735.493 202.844L732.096 203.524L720.06 205.465L717.536 207.503L713.751 209.25L712.295 209.153L710.548 208.28L709.966 207.697L716.76 255.549L715.401 260.694L717.828 265.256L718.604 269.041L714.916 277.68L712.78 279.233L712.683 287.871L713.072 287.969L713.46 287.871L714.916 285.154H718.507L722.875 283.698L728.31 285.736L728.893 283.504L731.999 281.174L736.658 281.854L739.182 276.903L746.073 277.486L745.976 274.671L752.091 266.615L751.12 262.926L755.391 262.829L760.632 258.655L759.371 253.899L759.565 253.705L759.371 252.055L753.547 217.695L750.926 203.038L750.635 201.485L750.344 200.224Z" fill="#38ABE2" stroke="white" stroke-width="0.970631" stroke-linejoin="round"/>
  <path fill-rule="evenodd" clip-rule="evenodd" d="M693.174 317.185L692.883 316.408L692.3 316.214L691.912 317.476L692.009 317.573L693.077 317.476L693.174 317.185ZM759.565 253.705L759.371 253.899L760.633 258.656L755.391 262.829L751.12 262.926L752.091 266.615L745.976 274.671L746.073 277.486L739.182 276.903L736.658 281.854L731.999 281.174L728.893 283.504L728.311 285.736L722.875 283.698L718.507 285.154H714.916L713.46 287.872L713.072 287.969V288.26L711.616 291.56L713.266 293.889L707.151 297.481L708.607 301.752L706.763 303.887L699.289 301.849L697.347 306.411L697.93 306.993L698.124 307.381L697.25 315.34L696.862 315.535L694.338 317.088L694.241 317.379L697.056 316.991L716.663 314.37L715.692 310.487L718.992 310.39L758.497 305.149L786.257 300.49L786.645 300.199L787.325 299.422L794.605 295.54L800.234 288.163L801.011 285.639L804.699 282.727L809.358 276.806L810.038 275.836L809.746 275.739H807.32L804.214 273.991L798.681 267.294L796.74 260.5V260.306L796.546 260.111L792.469 257.782L790.625 254.676L786.937 258.267L784.607 258.85L781.695 257.685L779.172 259.626L773.93 257.297L772.571 257.879L767.621 253.608L765.097 252.346L760.341 252.929L759.565 253.705Z" fill="#38ABE2" stroke="white" stroke-width="0.970631" stroke-linejoin="round"/>
  <path fill-rule="evenodd" clip-rule="evenodd" d="M890.212 332.229L889.144 333.297L889.338 333.491L890.212 332.229ZM890.988 326.6L890.503 327.376L890.697 328.153L890.988 326.6ZM896.812 317.573L895.356 318.543L894.58 319.708L896.812 317.573ZM909.333 311.458L908.751 311.07L907.489 310.973L909.333 311.458ZM906.713 310.875H905.839L904.383 311.652L906.713 310.875ZM909.721 311.943L912.536 304.955L910.595 307.867L909.721 311.943ZM913.895 302.722L915.157 300.878H914.478L913.895 302.722ZM922.049 295.151L919.913 284.377L921.757 290.007L922.049 295.151ZM910.207 270.594L910.013 270.691L909.721 270.788H909.819L915.157 279.815L919.331 283.989L910.207 270.594ZM908.46 271.177L907.683 271.371L907.877 271.468H909.527L909.333 270.886L909.042 270.983H908.751V271.177L908.557 271.274L908.46 271.177ZM818.676 293.307L818.191 294.763L818.288 298.937L817.22 298.84L814.697 303.984L811.882 304.275L806.641 309.419L804.311 308.546L801.302 313.011L793.343 320.194L789.46 321.164L785.384 324.95L785.19 327.473L781.598 329.414L781.695 333.685V334.656L782.957 334.365L796.546 331.55L800.234 330.773L801.496 330.482H801.787L834.012 320.291L839.448 323.105L850.416 323.494L858.472 321.941L880.117 335.627L880.506 335.335L890.503 331.259L890.6 325.92L894.192 319.417L898.074 315.729L906.13 310.39L907.198 308.449L909.333 309.419L910.304 303.013L909.139 305.246L905.063 306.605L901.18 306.702L905.936 303.207L904.48 301.654L906.13 298.16L897.006 296.704L896.618 296.219L904.383 294.763L906.907 296.025L910.11 295.734L912.731 293.792L914.672 290.007L916.419 289.522L916.128 284.183L913.895 282.048L911.663 284.086L912.148 289.23L910.498 282.921L909.236 282.63L899.627 286.61L903.898 282.436L904.092 280.786L908.557 279.718L909.819 276.418L912.828 278.165L909.625 273.409L907.392 271.468L868.567 282.533L843.816 288.842L818.773 293.501L818.676 293.307Z" fill="#F54545" stroke="white" stroke-width="0.970631" stroke-linejoin="round"/>
  <path fill-rule="evenodd" clip-rule="evenodd" d="M818.191 206.63L815.764 196.147L815.279 194.011L812.561 182.073L809.067 184.305L801.593 190.032L796.74 195.953L792.955 196.535L785.966 200.515L782.083 198.185L770.339 196.826L764.127 198.379L758.012 199.835L751.606 201.194L750.635 201.485L750.926 203.038L753.547 217.695L759.371 252.055L759.565 253.705L760.341 252.929L765.097 252.346L767.621 253.608L772.571 257.879L773.93 257.297L779.172 259.626L781.695 257.685L784.607 258.85L786.937 258.267L790.625 254.676L792.469 257.782L796.546 260.111L796.74 260.306L800.914 258.267L802.37 255.064L801.205 251.764L804.505 246.717L806.932 246.329L806.64 242.058L810.62 236.622L811.299 237.399L814.891 234.681L817.997 230.022L818.482 208.765L818.676 208.668L818.191 206.63Z" fill="#38ABE2" stroke="white" stroke-width="0.970631" stroke-linejoin="round"/>
  <path fill-rule="evenodd" clip-rule="evenodd" d="M786.257 300.49L758.497 305.149L718.992 310.39L715.692 310.487L716.663 314.37L697.056 316.99L694.241 317.379V317.476L693.465 318.446L693.077 318.349V317.573V317.476L692.009 317.573L692.106 317.67L692.688 320.388L690.747 322.814L690.553 327.279V328.056V328.153L687.641 333.782L688.224 337.762L685.506 342.033L686.476 345.915L682.982 349.118L683.176 349.313L685.312 349.118L704.724 346.692L713.266 345.527L718.119 344.848H718.313L718.216 344.654L734.523 342.421L742.288 341.45L757.818 338.927L760.73 338.441L762.477 338.247L770.727 336.694L772.765 336.306L780.336 334.85L781.695 334.656V333.685L781.598 329.415L785.189 327.473L785.384 324.95L789.46 321.164L793.343 320.194L801.302 313.011L804.311 308.546L806.64 309.42L811.882 304.275L814.697 303.984L817.22 298.84L818.288 298.937L818.191 294.763L818.676 293.307L817.123 293.598L811.591 295.151L804.99 296.51L788.393 299.908L786.645 300.199L786.257 300.49Z" fill="#F54545" stroke="white" stroke-width="0.970631" stroke-linejoin="round"/>
  <path fill-rule="evenodd" clip-rule="evenodd" d="M908.751 270.983H909.042L909.333 270.885L909.139 270.4L908.751 270.983ZM905.451 260.111V260.597L905.936 260.306L905.451 260.111ZM906.615 257.879L906.421 259.141L906.13 259.626L906.615 257.879ZM907.489 255.355L907.586 254.773L907.392 255.355H907.489ZM908.071 252.735L908.363 252.055L907.877 253.802L908.071 252.735ZM908.169 251.279L908.557 249.143L908.071 249.629L908.169 251.279ZM909.916 241.669L910.11 240.796L910.013 240.99L909.916 241.669ZM909.527 239.437L908.266 239.922L906.324 240.796L905.645 241.669L905.936 241.767L903.607 256.229L904.48 258.559L905.839 252.541L908.363 244.678L909.527 239.534V239.437ZM911.469 238.661L911.177 238.758L911.08 239.146L910.595 242.155L910.983 241.087L911.469 238.661ZM810.038 275.836L809.358 276.806L804.699 282.727L801.011 285.639L800.234 288.163L794.605 295.54L787.325 299.422L786.646 300.199L788.393 299.907L804.99 296.51L811.591 295.151L817.123 293.598L818.676 293.307L818.773 293.501L843.816 288.842L868.567 282.533L907.392 271.468L907.101 270.983L907.004 270.691L907.683 271.371L908.46 271.177L908.363 271.08L907.683 267.779L908.168 267.877L909.721 270.788L910.013 270.691L910.207 270.594L909.819 269.818L905.839 263.703L900.889 264.576L898.656 266.421L896.521 264.479L889.241 262.053L884.194 261.859L893.997 260.985L899.433 264.673L900.986 262.247L896.618 256.714L899.724 256.908L898.074 252.443L894.191 252.638L884.97 245.164H883.806L896.812 251.57L895.939 247.105L896.812 245.649L890.212 243.125L884.485 242.737L881.67 240.213L879.341 241.669L878.467 234.972L879.438 235.166L879.244 229.731L879.05 229.537L878.855 229.634L878.661 229.537L878.176 229.148L877.885 228.857L874.779 227.498L871.576 225.169L867.111 224.004L866.82 223.907V224.004L866.237 228.081L857.21 224.198L857.404 229.828L852.454 239.243L849.445 242.543L847.504 248.27L841.583 246.231L838.671 259.432L836.342 263.897L835.953 269.721L834.206 272.535L827.703 274.477L822.365 278.65L819.841 279.039L817.414 281.174L811.299 278.942L810.232 275.933L810.038 275.836Z" fill="#38ABE2"/>
  <path d="M907.198 256.714L907.101 255.938M908.751 270.983H909.042L909.333 270.885L909.139 270.4L908.751 270.983ZM905.451 260.111V260.597L905.936 260.306L905.451 260.111ZM906.615 257.879L906.421 259.141L906.13 259.626L906.615 257.879ZM907.489 255.355L907.586 254.773L907.392 255.355H907.489ZM908.071 252.735L908.363 252.055L907.877 253.802L908.071 252.735ZM908.169 251.279L908.557 249.143L908.071 249.629L908.169 251.279ZM909.916 241.669L910.11 240.796L910.013 240.99L909.916 241.669ZM909.527 239.437L908.266 239.922L906.324 240.796L905.645 241.669L905.936 241.767L903.607 256.229L904.48 258.559L905.839 252.541L908.363 244.678L909.527 239.534V239.437ZM911.469 238.661L911.177 238.758L911.08 239.146L910.595 242.155L910.983 241.087L911.469 238.661ZM810.038 275.836L809.358 276.806L804.699 282.727L801.011 285.639L800.234 288.163L794.605 295.54L787.325 299.422L786.646 300.199L788.393 299.907L804.99 296.51L811.591 295.151L817.123 293.598L818.676 293.307L818.773 293.501L843.816 288.842L868.567 282.533L907.392 271.468L907.101 270.983L907.004 270.691L907.683 271.371L908.46 271.177L908.363 271.08L907.683 267.779L908.168 267.877L909.721 270.788L910.013 270.691L910.207 270.594L909.819 269.818L905.839 263.703L900.889 264.576L898.656 266.421L896.521 264.479L889.241 262.053L884.194 261.859L893.997 260.985L899.433 264.673L900.986 262.247L896.618 256.714L899.724 256.908L898.074 252.443L894.191 252.638L884.97 245.164H883.806L896.812 251.57L895.939 247.105L896.812 245.649L890.212 243.125L884.485 242.737L881.67 240.213L879.341 241.669L878.467 234.972L879.438 235.166L879.244 229.731L879.05 229.537L878.855 229.634L878.661 229.537L878.176 229.148L877.885 228.857L874.779 227.498L871.576 225.169L867.111 224.004L866.82 223.907V224.004L866.237 228.081L857.21 224.198L857.404 229.828L852.454 239.243L849.445 242.543L847.504 248.27L841.583 246.231L838.671 259.432L836.342 263.897L835.953 269.721L834.206 272.535L827.703 274.477L822.365 278.65L819.841 279.039L817.414 281.174L811.299 278.942L810.232 275.933L810.038 275.836Z" stroke="white" stroke-width="0.970631" stroke-linejoin="round"/>
  <path fill-rule="evenodd" clip-rule="evenodd" d="M705.792 134.803L703.365 137.812L701.909 142.18L702.589 144.606L705.792 134.803ZM650.078 111.993L651.534 109.955L650.466 110.925L650.078 111.993ZM652.31 108.79L651.825 108.208L650.757 108.887L652.31 108.79ZM631.15 114.226L628.918 116.749L629.986 128.397L623.774 134.026L622.609 139.462L626.006 142.568L625.035 155.963L628.627 158.681L630.956 158.875L638.333 163.34L642.992 168.193L648.913 171.202L650.272 178.676V179.161L653.087 182.558L652.31 185.179L653.281 190.905L656.193 194.885L661.531 197.7L661.434 198.185L682.594 195.759L690.456 194.788L703.559 192.944L703.171 191.488V186.926L700.55 182.073L699.871 175.958L701.133 169.163L700.453 163.922L702.783 157.419L701.909 156.351L702.103 150.333L703.365 145.771L701.909 144.218L699.094 145.189L697.541 149.265L693.853 151.401L695.018 146.256L698.318 141.889L698.512 139.947L698.609 139.85L693.95 135.191V128.591L688.709 124.32L681.526 123.835L674.149 121.894L658.231 117.04L655.125 115.293L654.834 115.584L649.883 114.905L648.233 115.876L648.913 108.79L640.954 112.867L631.247 114.42L631.15 114.226ZM650.175 109.081L649.981 108.402L649.301 108.693L650.175 109.081ZM646.68 108.402L646.972 107.819L646.777 107.625L646.68 108.402ZM653.766 106.752L653.475 105.393L653.184 107.043L653.766 106.752Z" fill="#38ABE2" stroke="white" stroke-width="0.970631" stroke-linejoin="round"/>
  <path fill-rule="evenodd" clip-rule="evenodd" d="M836.73 223.713L822.947 227.11L818.676 208.668L818.482 208.765L817.997 230.022L814.891 234.681L811.299 237.399L810.62 236.622L806.64 242.058L806.932 246.329L804.505 246.717L801.205 251.764L802.37 255.064L800.914 258.267L796.74 260.306V260.5L798.681 267.294L804.214 273.992L807.32 275.739H809.746L810.038 275.836L810.232 275.933L811.299 278.942L817.414 281.174L819.841 279.039L822.365 278.651L827.703 274.477L834.206 272.536L835.953 269.721L836.342 263.897L838.671 259.432L841.583 246.232L847.504 248.27L849.445 242.543L852.454 239.243L857.404 229.828L857.21 224.198L866.237 228.081L866.82 224.004V223.907L864.005 219.054L858.181 218.374L854.784 220.995V222.936L851.872 223.616L847.601 226.625L845.369 227.11L840.904 233.419L838.671 223.228L836.73 223.713Z" fill="#38ABE2" stroke="white" stroke-width="0.970631" stroke-linejoin="round"/>
  <path fill-rule="evenodd" clip-rule="evenodd" d="M893.803 207.697L894.191 209.153L902.248 232.157L911.469 229.44L911.372 229.245H911.566L911.857 229.342L912.051 229.245L911.857 228.857L909.527 222.645L898.171 211.871L898.656 204.397H896.327L894.58 205.756L893.803 207.697Z" fill="#38ABE2" stroke="white" stroke-width="0.970631" stroke-linejoin="round"/>
  <path fill-rule="evenodd" clip-rule="evenodd" d="M878.176 229.148L878.661 229.537L878.855 229.634L879.05 229.537L879.244 229.634L879.923 230.022L880.117 230.313V230.993L880.311 231.381L881.573 229.051L880.214 228.275L878.564 228.372L878.176 229.148Z" fill="#38ABE2" stroke="white" stroke-width="0.970631" stroke-linejoin="round"/>
  <path fill-rule="evenodd" clip-rule="evenodd" d="M911.566 238.272L912.245 233.031L911.663 236.913L911.274 238.563L911.177 238.758L911.469 238.66L911.566 238.272ZM912.051 229.245L911.857 229.342L912.051 229.925V231.09V229.245ZM838.671 223.227L840.904 233.419L845.369 227.11L847.601 226.625L851.872 223.616L854.784 222.936V220.995L858.181 218.374L864.005 219.054L866.82 223.907L867.111 224.004L871.576 225.169L874.779 227.498L877.885 228.857L878.176 229.148L878.564 228.372L880.214 228.275L881.573 229.051L880.311 231.381V231.478L878.467 237.108L884.485 240.99L890.503 241.281L894.483 243.125L892.833 238.466L887.688 236.719L886.426 232.74L889.629 237.01L892.25 237.399L889.921 235.069L888.076 228.178L888.562 224.198L886.523 219.83L888.659 218.083L890.212 212.454L889.629 220.801L891.279 223.616L892.833 220.316L893.706 225.751L892.056 229.731L896.812 231.478L892.735 232.837L894.871 236.816L898.365 237.981L900.306 234.584L900.112 239.34L903.412 239.243L905.548 241.669H905.645L906.324 240.796L908.266 239.922L909.527 239.437L909.43 239.243L911.954 231.769V231.478L911.469 229.537V229.439L902.248 232.157L894.191 209.153L893.803 207.697L892.153 208.183L885.262 210.318L847.31 220.898L840.418 222.742L838.671 223.227Z" fill="#38ABE2" stroke="white" stroke-width="0.970631" stroke-linejoin="round"/>
  <path fill-rule="evenodd" clip-rule="evenodd" d="M916.807 207.309L916.322 206.144V207.309H916.807ZM917.778 203.718L918.069 200.806L917.487 203.33L917.778 203.718ZM913.798 173.919L903.607 171.396L901.859 170.91L900.209 170.522L896.133 179.549L897.88 181.684L897.783 188.188L899.627 188.479L903.412 198.379L903.218 198.671L898.462 205.659L898.947 210.998L910.401 214.88L910.498 219.345L913.119 215.657L913.507 210.318L916.225 208.474L915.157 204.494L917.195 199.738V189.352L916.516 185.955L911.954 186.052L913.119 181.393L913.798 173.919Z" fill="#38ABE2" stroke="white" stroke-width="0.970631" stroke-linejoin="round"/>
  <path fill-rule="evenodd" clip-rule="evenodd" d="M913.507 181.782L912.051 183.82L911.663 184.402L913.507 181.782ZM926.902 177.025L931.755 172.755V172.561L926.902 177.025ZM914.186 180.034V176.734L913.895 178.481L914.186 180.034ZM936.705 164.504L935.54 164.213L935.346 165.087L936.705 164.504ZM939.326 162.757L939.229 163.728L939.423 163.145L939.326 162.757ZM936.608 162.854L930.105 168.872L920.107 173.143L917.487 175.375L917.292 177.511L914.575 179.743L914.963 182.655L919.137 181.005L925.252 176.055L932.046 172.464L942.335 162.757L935.055 168.29L932.725 169.26L936.608 162.854ZM939.617 158.778L940.005 158.195L938.84 159.554L939.617 158.778ZM830.518 155.186L828.965 154.992L830.13 156.545L830.518 155.186ZM862.743 125.485L862.937 124.417L862.161 125.388L862.743 125.485ZM863.228 118.496L862.84 118.691L862.355 119.758L863.228 118.496ZM822.171 173.628L822.85 176.54L827.994 177.802L857.502 169.746L887.203 160.816L892.638 164.99L893.706 167.416L900.015 170.134L900.209 170.522L901.859 170.91L903.607 171.396L913.798 173.919L913.604 173.434L914.478 177.414L916.419 176.928L917.487 172.561V172.463L915.739 170.813L918.263 167.707L917.098 166.251L913.41 151.983L913.216 151.013L912.73 150.721L912.439 146.451L912.148 141.792L911.857 136.744V136.453L911.663 136.55L906.81 120.632L901.665 112.576L900.209 102.966L895.841 92.7747L895.259 93.0659L874.973 99.8603L870.896 104.228L866.334 112.964L866.528 114.905L860.51 124.029L864.199 125.291L865.267 132.182L860.996 137.812L848.183 145.577L845.757 144.606L836.245 145.965L827.412 151.304L827.897 154.119L831.003 156.836L829.256 165.378L822.268 173.531L822.171 173.628Z" fill="#38ABE2" stroke="white" stroke-width="0.970631" stroke-linejoin="round"/>
  <path fill-rule="evenodd" clip-rule="evenodd" d="M900.015 170.134L893.706 167.416L892.638 164.99L887.203 160.816L857.502 169.746L827.994 177.802L822.85 176.54L822.171 173.628L820.521 174.89L817.9 176.734L813.144 181.587L812.561 182.073L815.279 194.011L815.764 196.147L818.191 206.63L818.676 208.668L822.947 227.11L836.73 223.713L838.671 223.227L840.418 222.742L847.31 220.898L885.262 210.318L892.153 208.183L893.803 207.697L894.58 205.756L896.327 204.397H898.656L898.948 203.524L902.733 199.253L903.121 198.573L903.412 198.379L899.627 188.479L897.783 188.188L897.88 181.684L896.133 179.549L900.209 170.522L900.015 170.134Z" fill="#38ABE2" stroke="white" stroke-width="0.970631" stroke-linejoin="round"/>
  <path fill-rule="evenodd" clip-rule="evenodd" d="M946.8 118.399H946.703L946.897 118.496L946.8 118.399ZM953.982 97.7249L953.206 96.5601V97.1425L953.982 97.7249ZM952.623 96.6572V95.6866L952.526 95.1042L952.623 96.6572ZM956.118 92.5805L955.924 92.4835L956.021 92.7747L956.118 92.5805ZM965.824 87.7274L965.63 86.2714L965.242 86.9509L965.824 87.7274ZM963.397 88.3098L963.495 87.2421L962.33 87.4362L963.397 88.3098ZM966.989 85.1067H966.6V85.3008L966.989 85.1067ZM962.136 86.5626L961.262 86.3685L961.165 87.2421L962.136 86.5626ZM967.086 83.5537L967.959 84.2331L967.668 83.4566L967.086 83.5537ZM964.465 83.6507L963.591 85.3008L964.756 84.7184L964.465 83.6507ZM960.291 83.7478L959.903 84.3302L960.194 85.2037L960.291 83.7478ZM966.018 80.5447L965.921 79.7682L965.63 80.2535L966.018 80.5447ZM965.533 80.933L964.659 80.1564V80.8359L965.533 80.933ZM960.097 83.1654L959.903 82.0977L959.515 82.9713L960.097 83.1654ZM969.318 79.7682L967.862 81.9036L967.765 80.3506L969.318 79.7682ZM976.404 73.265L975.724 72.2943L975.336 72.4885L976.404 73.265ZM979.025 68.8971L978.442 68.6059L978.345 68.8971H979.025ZM980.286 61.3262H979.413L980.383 61.6174L980.286 61.3262ZM981.742 62.2968L981.451 60.5497L980.675 60.4526L981.742 62.2968ZM980.189 60.7438L979.995 58.8996L979.316 60.1614L980.189 60.7438ZM923.893 75.9827L937.967 108.984L938.161 109.664L944.276 117.137V117.04L945.247 116.749L945.441 111.217L946.994 109.275L947.964 104.131L947.091 103.257L948.741 98.2101L954.371 95.5894L958.059 91.1245L959.418 83.3595L965.339 82.9712L964.562 78.9916L971.939 76.1768L972.424 71.809L974.171 72.1972L979.025 68.2176L981.16 63.0733L976.21 58.1231L970.968 57.0554L969.027 53.0758V50.7463L965.824 51.7169L962.233 50.4551V46.4755L952.526 25.5099L945.441 21.8215L937.579 28.4218L935.443 28.0335L933.599 24.6363L931.075 25.6069L927.484 43.4665L928.746 49.2903L929.814 61.132L926.999 70.256L928.94 71.7119L926.61 76.1768L924.087 75.7886L923.893 75.9827Z" fill="#38ABE2" stroke="white" stroke-width="0.970631" stroke-linejoin="round"/>
  <path fill-rule="evenodd" clip-rule="evenodd" d="M719.963 138.2L719.478 137.424L719.381 138.394L719.963 138.2ZM721.516 136.453L720.351 134.9L720.157 135.579L721.516 136.453ZM722.487 129.465L721.516 128.591V128.785L722.487 129.465ZM720.06 205.465L732.096 203.524L735.493 202.844L750.344 200.224L750.635 201.485L751.606 201.194L758.012 199.835L764.127 198.379L770.339 196.826L770.242 196.535L773.445 190.226L773.154 184.985L776.745 175.958L779.56 177.608L780.628 175.57L780.336 167.804L777.716 162.951L773.833 152.663L770.436 148.877L768.689 148.392L762.38 152.76L763.059 153.633L759.759 159.845L756.556 159.263L755.585 152.76L756.944 152.274L759.759 145.771L760.05 134.318L755.682 124.611L745.976 122.961L745.005 121.505L735.978 118.885L731.902 123.932L732.29 128.3L729.184 132.182L729.864 138.2L726.855 140.336V132.765L724.137 138.491L720.934 143.539L718.798 145.189L719.866 150.527L718.507 156.06L719.284 162.951L718.313 166.349L725.302 179.743L726.175 184.888L725.302 194.4L720.643 205.077L720.06 205.465ZM740.832 118.011L738.308 118.205L739.861 119.37L740.832 118.011ZM726.078 120.535H725.302L726.175 120.923L726.078 120.535ZM743.064 108.208L742.094 106.655L741.705 106.752L743.064 108.208ZM655.125 115.293L658.231 117.04L674.149 121.894L681.526 123.835L688.709 124.32L693.95 128.591V135.191L698.609 139.85V139.753L702.395 128.785L706.957 125.582L710.451 121.699L711.033 125.194L714.625 119.661L723.263 116.361L723.943 115.002L732.678 116.07L736.076 117.817L737.726 113.546L739.279 114.517L746.073 113.449L744.423 110.731L741.414 108.984L741.996 102.675L736.076 105.975L730.64 105.296L728.893 101.122L729.475 99.7632L722.098 103.257L717.342 103.549L708.801 108.79L707.83 110.731L702.589 109.469L699.289 110.925L692.688 105.199L678.032 100.734L677.741 98.9867L668.326 108.014L662.987 109.372L655.416 115.099L655.125 115.293ZM689.485 93.26L678.129 98.8896L681.914 102.578L683.37 98.8896L687.253 94.1336L689.485 93.26ZM676.77 79.9623L669.005 85.3008L668.617 87.9215L674.732 83.4566L676.77 79.9623Z" fill="#38ABE2" stroke="white" stroke-width="0.970631" stroke-linejoin="round"/>
  <path fill-rule="evenodd" clip-rule="evenodd" d="M101.283 544.296L100.797 544.49L101.186 544.587L101.283 544.296ZM103.127 543.228V543.519L103.321 543.422L103.127 543.228ZM104.098 543.713V543.519L104.001 543.616L104.098 543.713ZM103.903 543.519V543.422H103.709L103.903 543.519ZM28.1943 479.749L28.0972 480.428L28.2913 482.369L28.1943 479.749ZM27.7089 477.128L27.806 478.002L27.9031 477.71L27.7089 477.128ZM103.903 542.354L104.001 541.772L103.612 541.966L103.903 542.354ZM114.969 547.111L114.872 547.013L115.066 547.402L114.969 547.111ZM107.786 543.713L106.718 542.743V545.072L107.786 543.713ZM110.213 545.849L110.115 545.169L108.465 545.072L110.213 545.849ZM116.036 547.208L115.939 547.402H116.133L116.036 547.208ZM116.425 547.305H116.23L116.619 547.402L116.425 547.305ZM117.589 547.693H117.492H117.395H117.589ZM31.8827 481.884L32.2709 481.981L32.5621 481.884H31.8827ZM115.454 546.334L114.677 546.237L114.969 546.528L115.454 546.334ZM26.6412 474.313L25.2824 473.731L25.1853 474.022L26.6412 474.313ZM117.881 546.528L117.686 546.431V546.528H117.881ZM123.801 547.693L120.016 547.984L119.142 548.372L123.801 547.693ZM19.7498 459.074H18.6821L18.8762 459.366L19.7498 459.074ZM135.546 552.158V551.77H135.352L135.546 552.158ZM140.593 552.255L140.787 552.061L140.593 551.867V552.255ZM144.379 553.323L144.573 553.226H144.476L144.379 553.323ZM141.273 551.576L141.176 551.187H140.982L141.273 551.576ZM147.776 553.031L147.679 553.129H147.776V553.031ZM20.3321 454.124L18.8762 454.318L20.7204 455.968L20.3321 454.124ZM142.632 551.576L142.826 550.993H142.729L142.632 551.576ZM159.035 550.12L159.132 549.925L158.938 549.828L159.035 550.12ZM156.609 549.246L153.212 552.255L155.638 552.061L158.453 549.828L156.609 549.246ZM162.724 550.314L162.044 550.12L162.53 550.508L162.724 550.314ZM164.083 550.411L163.015 550.12L162.821 550.217L164.083 550.411ZM160.394 549.052H159.327L161.171 549.537L160.394 549.052ZM164.859 550.023L164.762 549.828L164.374 549.926L164.859 550.023ZM161.947 548.858L161.559 548.664V549.731L161.947 548.858ZM174.371 551.284L174.274 551.187H174.08L174.371 551.284ZM174.565 551.187V551.09L174.371 550.993L174.565 551.187ZM172.915 550.605L173.109 550.993V550.896L172.915 550.605ZM173.789 550.605L172.915 550.314L173.983 551.09L173.789 550.605ZM186.601 551.09L186.407 550.702H186.31L186.601 551.09ZM291.041 544.587L290.847 544.393L290.944 544.587H291.041ZM173.401 547.596V547.499L173.304 547.596H173.401ZM293.856 542.84L294.147 543.228H294.341L293.856 542.84ZM187.766 550.12L187.669 550.217V550.508L187.766 550.12ZM175.73 548.372L175.924 547.596H175.827L175.73 548.372ZM299.486 540.607L298.612 541.093L299.389 541.481L299.486 540.607ZM170.198 545.752L167.771 546.237L165.636 549.052L170.198 545.752ZM187.572 549.44L186.99 549.925L187.572 549.828V549.44ZM299.486 540.122L299.292 539.734L299.194 539.928L299.486 540.122ZM178.254 546.917L177.574 546.819L178.254 547.499V546.917ZM293.08 541.384L292.885 541.578L293.08 542.257V541.384ZM179.807 546.819L179.516 546.917L179.904 547.208L179.807 546.819ZM186.99 548.858H186.698L186.504 548.664L186.99 548.858ZM179.03 546.819L178.545 546.528L178.739 546.819H179.03ZM185.534 547.887L184.66 548.178L184.078 549.731L185.534 547.887ZM290.944 541.093V541.772L291.332 541.287L290.944 541.093ZM174.08 544.781L174.857 544.587H174.76L174.08 544.781ZM173.109 544.199L172.915 544.005V544.102L173.109 544.199ZM290.944 540.413L290.75 540.316L290.653 540.607L290.944 540.413ZM184.466 546.237L184.272 546.14L184.078 546.431L184.466 546.237ZM289.974 540.607L290.071 540.122L289.876 540.025L289.974 540.607ZM289.197 540.122L288.906 540.51L289.391 540.607L289.197 540.122ZM188.543 544.878L188.348 544.684H188.251L188.543 544.878ZM288.906 538.375L289.682 538.666L289.974 538.278L288.906 538.375ZM290.071 537.696L289.779 537.89L290.265 538.181L290.071 537.696ZM287.838 538.278L287.644 537.89L287.45 538.084L287.838 538.278ZM297.544 534.687L296.283 538.278L297.544 537.501V534.687ZM289.003 536.045L288.129 536.919L288.323 537.89L289.003 536.045ZM198.637 543.81V543.422L198.54 543.616L198.637 543.81ZM287.935 535.075L290.75 539.346L297.059 543.325L295.603 539.928L289.585 534.784L287.935 535.075ZM194.755 542.257L194.657 541.966L194.463 542.063L194.755 542.257ZM291.235 533.425L290.847 534.881L291.527 534.395L291.235 533.425ZM293.274 533.425L293.177 534.395L294.05 534.687L293.274 533.425ZM197.861 540.996L197.375 540.899L196.89 541.093L197.861 540.996ZM207.858 541.772L207.47 542.452L207.664 541.869L207.858 541.772ZM209.314 541.869L208.44 541.966L208.926 542.549L209.314 541.869ZM150.494 529.445L151.464 529.931L151.27 529.736L150.494 529.445ZM189.319 538.957H189.416V538.86L189.319 538.957ZM289.682 531.483L290.168 533.328L291.138 532.745L289.682 531.483ZM285.509 532.26L285.994 536.725L286.965 535.754L285.509 532.26ZM285.994 530.804L288.226 533.91L287.935 531.872L285.994 530.804ZM279.102 531.581L278.52 533.425L279.297 532.163L279.102 531.581ZM210.673 536.531L210.479 536.24L210.673 536.628V536.531ZM279.297 530.125L283.179 536.531L282.597 532.163L279.297 530.125ZM216.108 533.522L215.817 533.813L216.303 534.007L216.108 533.522ZM214.847 533.716L214.944 533.425H214.555L214.847 533.716ZM213.876 533.716L211.352 535.366L208.246 539.443L209.799 541.093L216.982 535.754L213.876 533.716ZM275.123 527.407L274.443 527.019V527.601L275.123 527.407ZM213.294 532.551L213.391 532.939L214.07 533.328L213.294 532.551ZM276.967 525.563L275.026 526.533L276.87 527.116L276.967 525.563ZM275.705 525.563L275.511 525.368L275.414 525.563H275.705ZM281.626 524.01L280.85 523.718L280.655 524.301L281.626 524.01ZM277.452 524.689L276.773 524.592V524.786L277.452 524.689ZM279.588 523.913L283.567 529.736L282.5 524.398L279.588 523.913ZM215.526 530.222L213.197 531.969L214.264 533.134L217.37 530.804L215.526 530.222ZM189.125 526.533L189.028 526.436V526.533H189.125ZM188.057 526.048L187.96 525.563V525.757L188.057 526.048ZM217.856 527.31L217.661 527.407V527.504L217.856 527.31ZM216.885 527.116H216.788L216.594 527.407L216.885 527.116ZM219.214 526.339L218.923 526.145V526.242L219.214 526.339ZM219.991 526.242L219.7 526.048V526.145L219.991 526.242ZM218.729 525.951H218.341V526.048L218.729 525.951ZM238.045 524.01L238.142 523.718L237.948 523.913L238.045 524.01ZM243.966 520.904L245.13 519.448L244.742 519.739L243.966 520.904ZM232.124 520.709L232.512 520.418L232.609 520.03L232.124 520.709ZM232.124 519.642L231.736 519.933L232.415 519.739L232.124 519.642ZM216.206 519.642L216.108 519.253H216.011L216.206 519.642ZM231.736 519.545L231.347 519.933L231.153 520.321L231.736 519.545ZM242.413 518.38H242.51H242.607H242.413ZM242.898 518.38L242.704 518.283V518.38H242.898ZM241.733 518.283L241.83 518.38V518.283H241.733ZM233.774 518.865L234.162 518.477L233.677 518.865H233.774ZM234.939 517.992L232.609 521.777L235.618 518.283L234.939 517.992ZM231.93 518.477L231.639 518.089L231.541 518.283L231.93 518.477ZM239.307 517.603L239.112 517.506L239.21 517.603H239.307ZM241.83 517.797V517.118L241.636 517.409L241.83 517.797ZM170.586 510.324L165.927 510.129L169.13 513.527L170.586 510.324ZM236.88 517.215L237.074 517.895L237.559 517.118L236.88 517.215ZM232.997 517.118L232.706 519.253L233.192 517.895L232.997 517.118ZM232.027 515.759L232.124 516.05L232.318 515.953L232.027 515.759ZM231.542 516.147L231.347 515.565L231.056 515.759L231.542 516.147ZM236.103 514.983V514.594L235.812 514.788L236.103 514.983ZM231.736 514.4V515.371L232.027 514.691L231.736 514.4ZM173.692 501.2L173.886 500.617L173.789 500.714L173.692 501.2ZM173.983 500.229L173.886 500.132L173.789 500.229H173.983ZM180.583 495.182L180.195 494.988V495.085L180.583 495.182ZM180.001 494.793V494.599L179.807 494.793H180.001ZM164.471 490.232L164.277 489.746L164.18 489.455L164.471 490.232ZM165.927 488.484H166.024L166.121 488.581L165.927 488.484ZM163.306 487.999L162.53 487.028L163.112 487.805L163.306 487.999ZM161.753 486.446H161.559L161.85 486.543L161.753 486.446ZM187.475 492.949L186.407 493.046L186.99 493.338L187.475 492.949ZM160.685 483.534L159.909 486.446L162.335 486.834L165.539 490.134L167.48 489.261L160.685 483.534ZM177.671 484.699V484.505V484.602V484.699ZM172.818 474.41L172.624 474.313L172.721 474.41H172.818ZM175.633 475.381L175.924 475.284H175.827L175.633 475.381ZM177.574 474.798H177.866L178.739 474.41L177.574 474.798ZM181.069 473.731L181.263 473.537L180.972 473.731H181.069ZM181.554 473.634L182.136 473.342L181.651 473.44L181.554 473.634ZM183.01 473.051L182.525 473.148V473.245L183.01 473.051ZM245.324 455.483L244.936 455.192L244.257 454.9L245.324 455.483ZM194.463 453.347L195.337 452.183L194.852 452.571L194.463 453.347ZM195.628 451.989L196.016 451.406L195.822 451.6L195.628 451.989ZM196.211 451.212L196.89 450.63L196.502 450.824L196.211 451.212ZM226.785 451.406L227.271 451.891H227.562L226.785 451.406ZM211.158 445L207.179 448.3L204.752 447.621L199.122 450.824L198.055 450.144L191.649 457.327L185.145 458.783L185.728 462.277L188.64 466.257L194.075 471.498L193.202 473.537L197.278 475.284L195.143 475.672L192.522 473.634L193.881 476.643L192.134 477.71L186.601 472.663L182.233 473.439L174.76 476.254L178.157 480.04L177.671 482.369L179.904 485.087L187.281 487.999L192.619 485.281L193.493 487.32L192.037 493.434H187.572L182.331 495.764L182.039 494.114L179.322 495.182L178.06 497.996L173.595 501.394V506.344L175.342 507.12L173.983 511.294L179.807 516.341L183.495 514.788L182.719 521L183.786 522.359L188.251 523.33L189.901 525.174L193.784 525.465L195.628 527.407L199.608 526.242L197.764 528.765L196.308 533.91L184.466 541.578L182.913 543.131L180.68 542.257L177.089 543.131L171.945 546.528L180.001 544.198L181.166 545.946L191.551 542.548L191.843 543.907L195.919 539.831L204.461 533.91L205.14 534.298L212.614 528.377L210.673 526.048L213.197 521.874L219.797 514.012L224.844 513.041L226.397 514.109L220.282 515.856L218.632 522.359L218.826 525.854L220.962 525.659L231.25 519.447L232.027 517.118L231.153 513.527L234.259 514.303L236.492 512.847L242.898 516.73L242.413 517.797L256.972 519.642L260.369 518.574L261.34 520.03L273.958 526.048L276.093 524.786L276.288 517.506L277.938 520.806L286.091 526.727L286.77 529.154L293.856 533.133L295.7 538.278L297.447 534.298L301.039 541.287L303.465 537.307L301.524 532.357L294.05 531.58L282.597 520.612L276.385 516.05L271.629 520.709H268.814L262.311 516.438L255.904 516.147L246.78 458.589L245.227 455.871L241.539 453.639L236.006 454.706L231.736 453.833L226.3 451.697L220.573 452.086L219.117 449.368L214.555 448.688L213.779 447.038L211.741 449.368L211.158 445Z" fill="#FCD847"/>

  <!-- text -->
  <text x="280" y="160" fill="black" font-size="24" font-weight="bold">Northwest {cost}</text>
  <text x="210" y="340" fill="black" font-size="24" font-weight="bold">Southwest {cost}</text>
  <text x="510" y="400" fill="black" font-size="24" font-weight="bold">Southeast {cost}</text>
  <text x="610" y="240" fill="black" font-size="24" font-weight="bold">Northeast {cost}</text>
</svg>
